<?xml version="1.0" encoding="UTF-8"?>
<svg viewBox="0 0 1600 900" xmlns="http://www.w3.org/2000/svg" xmlns:xlink="http://www.w3.org/1999/xlink" role="img"
    aria-labelledby="ai-viz-title ai-viz-desc" preserveAspectRatio="xMidYMid slice">
    <title id="ai-viz-title">生成AI活用イメージ</title>
    <desc id="ai-viz-desc">漆黒の空間に氷青色の精緻なニューラルネットワークが広がり、中央のAIモノグラムが鋭く輝くシックで先進的なビジュアル</desc>
    <style>
        /* 動きを減らす設定のユーザー向け：駆け巡る光・波紋を非表示にして静的に保つ
           （SMILはCSSでは停止できないため、動く要素自体を隠す方式） */
        @media (prefers-reduced-motion: reduce) {
            .ai-motion { display: none !important; }
        }
    </style>
    <defs>
        <!-- 背景：漆黒に近い深紺。中央がわずかに明るい -->
        <radialGradient id="ai-bg" cx="50%" cy="46%" r="80%">
            <stop offset="0%" stop-color="#0b1326" />
            <stop offset="55%" stop-color="#050a18" />
            <stop offset="100%" stop-color="#02030a" />
        </radialGradient>
        <!-- 奥行きの光（単色系・ごく控えめ） -->
        <radialGradient id="ai-depth-glow" cx="50%" cy="50%" r="50%">
            <stop offset="0%" stop-color="#1e40af" stop-opacity="0.35" />
            <stop offset="60%" stop-color="#1e40af" stop-opacity="0.1" />
            <stop offset="100%" stop-color="#1e40af" stop-opacity="0" />
        </radialGradient>
        <radialGradient id="ai-depth-teal" cx="50%" cy="50%" r="50%">
            <stop offset="0%" stop-color="#0e7490" stop-opacity="0.28" />
            <stop offset="60%" stop-color="#0e7490" stop-opacity="0.08" />
            <stop offset="100%" stop-color="#0e7490" stop-opacity="0" />
        </radialGradient>
        <!-- 精緻なグリッド -->
        <pattern id="ai-grid" width="100" height="100" patternUnits="userSpaceOnUse">
            <path d="M 100 0 L 0 0 0 100" fill="none" stroke="#13244d"
                stroke-opacity="0.5" stroke-width="0.75" />
        </pattern>
        <!-- 中央コアの光だまり -->
        <radialGradient id="ai-core-halo" cx="50%" cy="50%" r="50%">
            <stop offset="0%" stop-color="#7dd3fc" stop-opacity="0.32" />
            <stop offset="50%" stop-color="#0ea5e9" stop-opacity="0.1" />
            <stop offset="100%" stop-color="#0ea5e9" stop-opacity="0" />
        </radialGradient>
        <!-- ノードのハロー（シェル別に明度を変えて奥行きを出す） -->
        <radialGradient id="ai-halo-near" cx="50%" cy="50%" r="50%">
            <stop offset="0%" stop-color="#bae6fd" stop-opacity="0.55" />
            <stop offset="45%" stop-color="#38bdf8" stop-opacity="0.16" />
            <stop offset="100%" stop-color="#38bdf8" stop-opacity="0" />
        </radialGradient>
        <radialGradient id="ai-halo-mid" cx="50%" cy="50%" r="50%">
            <stop offset="0%" stop-color="#93c5fd" stop-opacity="0.45" />
            <stop offset="45%" stop-color="#3b82f6" stop-opacity="0.12" />
            <stop offset="100%" stop-color="#3b82f6" stop-opacity="0" />
        </radialGradient>
        <radialGradient id="ai-halo-far" cx="50%" cy="50%" r="50%">
            <stop offset="0%" stop-color="#60a5fa" stop-opacity="0.35" />
            <stop offset="45%" stop-color="#2563eb" stop-opacity="0.1" />
            <stop offset="100%" stop-color="#2563eb" stop-opacity="0" />
        </radialGradient>
        <!-- 信号パルス粒子（白熱コア＋氷青の尾） -->
        <radialGradient id="ai-pulse-ice" cx="50%" cy="50%" r="50%">
            <stop offset="0%" stop-color="#ffffff" />
            <stop offset="35%" stop-color="#bae6fd" stop-opacity="0.9" />
            <stop offset="100%" stop-color="#38bdf8" stop-opacity="0" />
        </radialGradient>
        <!-- AIモノグラム：メタリックなアイスブルー。光沢が静かに流れる -->
        <linearGradient id="ai-mono-grad" gradientUnits="userSpaceOnUse"
            x1="608" y1="590" x2="988" y2="310">
            <stop offset="0%" stop-color="#38bdf8" />
            <stop offset="45%" stop-color="#e8f6ff">
                <animate attributeName="offset" values="0.3;0.6;0.3" dur="12s"
                    repeatCount="indefinite" calcMode="spline"
                    keySplines="0.4 0 0.6 1;0.4 0 0.6 1" />
            </stop>
            <stop offset="100%" stop-color="#7dd3fc" />
        </linearGradient>
        <!-- ハロー層用の静的グラデーション（ぼかし結果をブラウザがキャッシュできる） -->
        <linearGradient id="ai-mono-grad-static" gradientUnits="userSpaceOnUse"
            x1="608" y1="590" x2="988" y2="310">
            <stop offset="0%" stop-color="#0ea5e9" />
            <stop offset="50%" stop-color="#7dd3fc" />
            <stop offset="100%" stop-color="#38bdf8" />
        </linearGradient>
        <!-- 周辺減光（強めに落としてシネマティックに） -->
        <radialGradient id="ai-vignette" cx="50%" cy="46%" r="75%">
            <stop offset="0%" stop-color="#010208" stop-opacity="0" />
            <stop offset="60%" stop-color="#010208" stop-opacity="0" />
            <stop offset="100%" stop-color="#010208" stop-opacity="0.75" />
        </radialGradient>
        <!-- モノグラムのハロー用ぼかし（小領域・静的色なので軽い） -->
        <filter id="ai-blur-wide" x="-60%" y="-60%" width="220%" height="220%">
            <feGaussianBlur stdDeviation="13" />
        </filter>
        <!-- フィルムグレイン（暗部のバンディング防止・質感付与） -->
        <filter id="ai-grain">
            <feTurbulence type="fractalNoise" baseFrequency="0.9"
                numOctaves="1" stitchTiles="stitch" />
        </filter>
        <!-- AIモノグラム（細線・幾何学パス。フォント環境に依存しない） -->
        <g id="ai-mono" fill="none"
            stroke-linecap="square" stroke-linejoin="miter">
            <path d="M 608 590 L 738 310 L 868 590" />
            <path d="M 654 492 L 822 492" />
            <path d="M 958 310 L 958 590" />
            <path d="M 928 310 L 988 310" />
            <path d="M 928 590 L 988 590" />
        </g>
    </defs>

    <!-- ============ 背景レイヤー ============ -->
    <rect width="1600" height="900" fill="url(#ai-bg)" />
    <rect width="1600" height="900" fill="url(#ai-grid)" />

    <!-- 奥行きの光（単色系で静かに呼吸） -->
    <ellipse cx="340" cy="200" rx="540" ry="300" fill="url(#ai-depth-teal)" opacity="0.7">
        <animate attributeName="opacity" values="0.55;0.85;0.55" dur="16s"
            repeatCount="indefinite" calcMode="spline"
            keySplines="0.4 0 0.6 1;0.4 0 0.6 1" />
    </ellipse>
    <ellipse cx="1320" cy="700" rx="580" ry="320" fill="url(#ai-depth-glow)" opacity="0.7">
        <animate attributeName="opacity" values="0.8;0.5;0.8" dur="19s"
            repeatCount="indefinite" calcMode="spline"
            keySplines="0.4 0 0.6 1;0.4 0 0.6 1" />
    </ellipse>

    <!-- 計器的なアクセント（十字マーク・静的） -->
    <g stroke="#3e5377" stroke-width="1" opacity="0.55">
        <path d="M 422 172 H 438 M 430 164 V 180" />
        <path d="M 1232 152 H 1248 M 1240 144 V 160" />
        <path d="M 312 712 H 328 M 320 704 V 720" />
        <path d="M 1322 732 H 1338 M 1330 724 V 740" />
    </g>

    <!-- かすかな星（数を絞り、ゆっくり） -->
    <g fill="#cbd5e1">
        <circle cx="180" cy="120" r="1.3" opacity="0.35">
            <animate attributeName="opacity" values="0.15;0.45;0.15" dur="7s" repeatCount="indefinite" />
        </circle>
        <circle cx="1090" cy="70" r="1.2" opacity="0.3">
            <animate attributeName="opacity" values="0.4;0.12;0.4" dur="8s" begin="2s" repeatCount="indefinite" />
        </circle>
        <circle cx="1490" cy="250" r="1.4" opacity="0.35">
            <animate attributeName="opacity" values="0.15;0.4;0.15" dur="9s" begin="1s" repeatCount="indefinite" />
        </circle>
        <circle cx="120" cy="560" r="1.2" opacity="0.3">
            <animate attributeName="opacity" values="0.38;0.12;0.38" dur="8.5s" begin="3s" repeatCount="indefinite" />
        </circle>
        <circle cx="880" cy="850" r="1.3" opacity="0.3">
            <animate attributeName="opacity" values="0.12;0.4;0.12" dur="7.5s" begin="0.5s" repeatCount="indefinite" />
        </circle>
    </g>

    <!-- ============ ニューラルネットワーク：エッジ ============ -->
    <!-- 外周ほど暗く細く＝被写界深度。色相は変えず明度だけで層を分ける -->

    <!-- 第1シェルのリング配線（モノグラムを囲む八角形） -->
    <g fill="none">
        <path d="M 1070 450 L 991 312 L 800 255 L 609 312 L 530 450 L 609 588 L 800 645 L 991 588 Z"
            stroke="#0ea5e9" stroke-width="5" stroke-opacity="0.1" />
        <path d="M 1070 450 L 991 312 L 800 255 L 609 312 L 530 450 L 609 588 L 800 645 L 991 588 Z"
            stroke="#9bdcfd" stroke-width="1.6" stroke-opacity="0.55" />
    </g>

    <!-- 第1シェル → 第2シェル（19本） -->
    <g fill="none">
        <path d="M 1070 450 L 1264 365 M 1070 450 L 1264 535 M 991 312 L 1264 365 M 991 312 L 1139 217 M 991 312 L 924 131 M 800 255 L 924 131 M 800 255 L 676 131 M 609 312 L 461 217 M 609 312 L 676 131 M 609 312 L 336 365 M 530 450 L 336 365 M 530 450 L 336 535 M 609 588 L 461 683 M 609 588 L 336 535 M 609 588 L 676 769 M 800 645 L 676 769 M 800 645 L 924 769 M 991 588 L 1139 683 M 991 588 L 1264 535"
            stroke="#0ea5e9" stroke-width="5" stroke-opacity="0.07" />
        <path d="M 1070 450 L 1264 365 M 1070 450 L 1264 535 M 991 312 L 1264 365 M 991 312 L 1139 217 M 991 312 L 924 131 M 800 255 L 924 131 M 800 255 L 676 131 M 609 312 L 461 217 M 609 312 L 676 131 M 609 312 L 336 365 M 530 450 L 336 365 M 530 450 L 336 535 M 609 588 L 461 683 M 609 588 L 336 535 M 609 588 L 676 769 M 800 645 L 676 769 M 800 645 L 924 769 M 991 588 L 1139 683 M 991 588 L 1264 535"
            stroke="#7dd3fc" stroke-width="1.3" stroke-opacity="0.38" />
    </g>

    <!-- 第2シェル → 第3シェル（16本） -->
    <g fill="none">
        <path d="M 1264 365 L 1489 370 M 1264 535 L 1489 370 M 1139 217 L 1250 98 M 924 131 L 1250 98 M 676 131 L 350 98 M 461 217 L 350 98 M 336 365 L 111 370 M 336 535 L 111 370 M 336 535 L 111 530 M 461 683 L 111 530 M 461 683 L 350 802 M 676 769 L 350 802 M 924 769 L 1250 802 M 1139 683 L 1250 802 M 1264 535 L 1489 530 M 1264 365 L 1489 530"
            stroke="#1d4ed8" stroke-width="5" stroke-opacity="0.07" />
        <path d="M 1264 365 L 1489 370 M 1264 535 L 1489 370 M 1139 217 L 1250 98 M 924 131 L 1250 98 M 676 131 L 350 98 M 461 217 L 350 98 M 336 365 L 111 370 M 336 535 L 111 370 M 336 535 L 111 530 M 461 683 L 111 530 M 461 683 L 350 802 M 676 769 L 350 802 M 924 769 L 1250 802 M 1139 683 L 1250 802 M 1264 535 L 1489 530 M 1264 365 L 1489 530"
            stroke="#60a5fa" stroke-width="1.1" stroke-opacity="0.28" />
    </g>

    <!-- 発火エッジ：白い光がたまに走る（頻度を抑えて品よく） -->
    <g class="ai-motion" fill="none" stroke-linecap="round" stroke-width="2">
        <path d="M 991 312 L 1070 450" stroke="#e8f6ff" stroke-opacity="0.75"
            stroke-dasharray="55 600" stroke-dashoffset="655">
            <animate attributeName="stroke-dashoffset" values="655;0" dur="4.5s"
                repeatCount="indefinite" />
        </path>
        <path d="M 609 312 L 336 365" stroke="#bae6fd" stroke-opacity="0.7"
            stroke-dasharray="65 700" stroke-dashoffset="765">
            <animate attributeName="stroke-dashoffset" values="765;0" dur="5.5s"
                begin="1.6s" repeatCount="indefinite" />
        </path>
        <path d="M 924 131 L 1250 98" stroke="#e8f6ff" stroke-opacity="0.65"
            stroke-dasharray="70 760" stroke-dashoffset="830">
            <animate attributeName="stroke-dashoffset" values="830;0" dur="6s"
                begin="3.2s" repeatCount="indefinite" />
        </path>
        <path d="M 336 535 L 111 530" stroke="#bae6fd" stroke-opacity="0.65"
            stroke-dasharray="55 620" stroke-dashoffset="675">
            <animate attributeName="stroke-dashoffset" values="675;0" dur="5s"
                begin="4.4s" repeatCount="indefinite" />
        </path>
        <path d="M 991 588 L 1139 683" stroke="#e8f6ff" stroke-opacity="0.7"
            stroke-dasharray="50 560" stroke-dashoffset="610">
            <animate attributeName="stroke-dashoffset" values="610;0" dur="5.2s"
                begin="2.4s" repeatCount="indefinite" />
        </path>
    </g>

    <!-- ============ ニューラルネットワーク：ノード ============ -->
    <!-- 第1シェル（最も明るい・脈動はごく浅く） -->
    <g>
        <g fill="url(#ai-halo-near)">
            <circle cx="1070" cy="450" r="16" /><circle cx="991" cy="312" r="16" />
            <circle cx="800" cy="255" r="16" /><circle cx="609" cy="312" r="16" />
            <circle cx="530" cy="450" r="16" /><circle cx="609" cy="588" r="16" />
            <circle cx="800" cy="645" r="16" /><circle cx="991" cy="588" r="16" />
        </g>
        <g fill="#dbf2ff">
            <circle cx="1070" cy="450" r="4.5">
                <animate attributeName="r" values="4;5.5;4" dur="3.6s" repeatCount="indefinite" />
            </circle>
            <circle cx="991" cy="312" r="4.5">
                <animate attributeName="r" values="5.5;4;5.5" dur="4s" begin="0.5s" repeatCount="indefinite" />
            </circle>
            <circle cx="800" cy="255" r="4.5">
                <animate attributeName="r" values="4;5.5;4" dur="3.8s" begin="1s" repeatCount="indefinite" />
            </circle>
            <circle cx="609" cy="312" r="4.5">
                <animate attributeName="r" values="5.5;4;5.5" dur="4.2s" begin="1.5s" repeatCount="indefinite" />
            </circle>
            <circle cx="530" cy="450" r="4.5">
                <animate attributeName="r" values="4;5.5;4" dur="3.7s" begin="2s" repeatCount="indefinite" />
            </circle>
            <circle cx="609" cy="588" r="4.5">
                <animate attributeName="r" values="5.5;4;5.5" dur="4.1s" begin="2.5s" repeatCount="indefinite" />
            </circle>
            <circle cx="800" cy="645" r="4.5">
                <animate attributeName="r" values="4;5.5;4" dur="3.9s" begin="3s" repeatCount="indefinite" />
            </circle>
            <circle cx="991" cy="588" r="4.5">
                <animate attributeName="r" values="5.5;4;5.5" dur="3.6s" begin="3.5s" repeatCount="indefinite" />
            </circle>
        </g>
    </g>

    <!-- 第2シェル（中明度。一部はリング型ノードで精密機械感を出す） -->
    <g>
        <g fill="url(#ai-halo-mid)">
            <circle cx="1264" cy="365" r="13" /><circle cx="1139" cy="217" r="13" />
            <circle cx="924" cy="131" r="13" /><circle cx="676" cy="131" r="13" />
            <circle cx="461" cy="217" r="13" /><circle cx="336" cy="365" r="13" />
            <circle cx="336" cy="535" r="13" /><circle cx="461" cy="683" r="13" />
            <circle cx="676" cy="769" r="13" /><circle cx="924" cy="769" r="13" />
            <circle cx="1139" cy="683" r="13" /><circle cx="1264" cy="535" r="13" />
        </g>
        <!-- リング型（中空）ノード -->
        <g fill="none" stroke="#93c5fd" stroke-width="1.5">
            <circle cx="1264" cy="365" r="5.5" />
            <circle cx="676" cy="131" r="5.5" />
            <circle cx="336" cy="535" r="5.5" />
            <circle cx="924" cy="769" r="5.5" />
        </g>
        <!-- 塗りノード -->
        <g fill="#a8cffc">
            <circle cx="1139" cy="217" r="3.8">
                <animate attributeName="r" values="3.4;4.6;3.4" dur="4.4s" begin="0.4s" repeatCount="indefinite" />
            </circle>
            <circle cx="924" cy="131" r="3.8">
                <animate attributeName="r" values="4.6;3.4;4.6" dur="4s" begin="0.9s" repeatCount="indefinite" />
            </circle>
            <circle cx="461" cy="217" r="3.8">
                <animate attributeName="r" values="3.4;4.6;3.4" dur="4.2s" begin="1.4s" repeatCount="indefinite" />
            </circle>
            <circle cx="336" cy="365" r="3.8">
                <animate attributeName="r" values="4.6;3.4;4.6" dur="3.9s" begin="1.9s" repeatCount="indefinite" />
            </circle>
            <circle cx="461" cy="683" r="3.8">
                <animate attributeName="r" values="3.4;4.6;3.4" dur="4.3s" begin="2.4s" repeatCount="indefinite" />
            </circle>
            <circle cx="676" cy="769" r="3.8">
                <animate attributeName="r" values="4.6;3.4;4.6" dur="4.1s" begin="2.9s" repeatCount="indefinite" />
            </circle>
            <circle cx="1139" cy="683" r="3.8">
                <animate attributeName="r" values="3.4;4.6;3.4" dur="3.8s" begin="3.4s" repeatCount="indefinite" />
            </circle>
            <circle cx="1264" cy="535" r="3.8">
                <animate attributeName="r" values="4.6;3.4;4.6" dur="4.5s" begin="3.9s" repeatCount="indefinite" />
            </circle>
        </g>
    </g>

    <!-- 第3シェル（最も暗い＝遠景） -->
    <g>
        <g fill="url(#ai-halo-far)">
            <circle cx="1489" cy="370" r="11" /><circle cx="1250" cy="98" r="11" />
            <circle cx="350" cy="98" r="11" /><circle cx="111" cy="370" r="11" />
            <circle cx="111" cy="530" r="11" /><circle cx="350" cy="802" r="11" />
            <circle cx="1250" cy="802" r="11" /><circle cx="1489" cy="530" r="11" />
        </g>
        <g fill="#6da8e8" opacity="0.85">
            <circle cx="1489" cy="370" r="3.2" />
            <circle cx="1250" cy="98" r="3.2" />
            <circle cx="350" cy="98" r="3.2" />
            <circle cx="111" cy="370" r="3.2" />
            <circle cx="111" cy="530" r="3.2" />
            <circle cx="350" cy="802" r="3.2" />
            <circle cx="1250" cy="802" r="3.2" />
            <circle cx="1489" cy="530" r="3.2" />
        </g>
    </g>

    <!-- ============ 信号パルス：ゆっくり駆け巡る氷青の光 ============ -->
    <g class="ai-motion">
        <circle r="5" fill="url(#ai-pulse-ice)">
            <animateMotion dur="6s" repeatCount="indefinite"
                path="M 800 450 L 991 312 L 1139 217 L 1250 98" />
        </circle>
        <circle r="4.5" fill="url(#ai-pulse-ice)">
            <animateMotion dur="7s" begin="2.2s" repeatCount="indefinite"
                path="M 800 450 L 609 312 L 461 217 L 350 98" />
        </circle>
        <circle r="5" fill="url(#ai-pulse-ice)">
            <animateMotion dur="6.5s" begin="1.2s" repeatCount="indefinite"
                path="M 800 450 L 1070 450 L 1264 365 L 1489 370" />
        </circle>
        <circle r="4.5" fill="url(#ai-pulse-ice)">
            <animateMotion dur="7.5s" begin="4s" repeatCount="indefinite"
                path="M 800 450 L 609 588 L 336 535 L 111 530" />
        </circle>
        <circle r="4.5" fill="url(#ai-pulse-ice)">
            <animateMotion dur="7s" begin="3s" repeatCount="indefinite"
                path="M 1489 530 L 1264 535 L 991 588 L 800 450" />
        </circle>
    </g>

    <!-- ============ 中央コア ============ -->
    <!-- コアの光だまり（深い呼吸） -->
    <circle cx="800" cy="450" r="230" fill="url(#ai-core-halo)" opacity="0.85">
        <animate attributeName="opacity" values="0.65;1;0.65" dur="8s"
            repeatCount="indefinite" calcMode="spline"
            keySplines="0.4 0 0.6 1;0.4 0 0.6 1" />
    </circle>

    <!-- 波紋：静かに広がる -->
    <g class="ai-motion" fill="none">
        <circle cx="800" cy="450" r="120" stroke="#38bdf8" stroke-width="1.2" opacity="0">
            <animate attributeName="r" values="120;420" dur="6s" repeatCount="indefinite" />
            <animate attributeName="opacity" values="0.4;0" dur="6s" repeatCount="indefinite" />
        </circle>
        <circle cx="800" cy="450" r="120" stroke="#7dd3fc" stroke-width="1.2" opacity="0">
            <animate attributeName="r" values="120;420" dur="6s" begin="3s" repeatCount="indefinite" />
            <animate attributeName="opacity" values="0.4;0" dur="6s" begin="3s" repeatCount="indefinite" />
        </circle>
    </g>

    <!-- リング：極細の点線がゆっくり回る＋静的なヘアライン円 -->
    <circle cx="800" cy="450" r="205" fill="none" stroke="#2e4a73" stroke-width="0.8" opacity="0.3" />
    <g>
        <animateTransform attributeName="transform" type="rotate"
            from="0 800 450" to="360 800 450" dur="40s" repeatCount="indefinite" />
        <circle cx="800" cy="450" r="178" fill="none" stroke="#38bdf8"
            stroke-width="1.2" stroke-dasharray="2 11" opacity="0.6" />
    </g>
    <g>
        <animateTransform attributeName="transform" type="rotate"
            from="360 800 450" to="0 800 450" dur="55s" repeatCount="indefinite" />
        <ellipse cx="800" cy="450" rx="262" ry="98" fill="none"
            stroke="#3e5377" stroke-width="0.9" opacity="0.4" />
    </g>

    <!-- AIモノグラム（拡散ハロー層＋シャープ層の二層構え） -->
    <g transform="translate(800 450) scale(0.72) translate(-798 -450)">
        <use href="#ai-mono" stroke="url(#ai-mono-grad-static)" stroke-width="15"
            opacity="0.5" filter="url(#ai-blur-wide)" />
        <use href="#ai-mono" stroke="url(#ai-mono-grad)" stroke-width="8" />
        <!-- 線上を静かに走るグリント -->
        <g class="ai-motion" fill="none" stroke="#ffffff" stroke-width="8"
            stroke-linecap="round" opacity="0.8">
            <path d="M 608 590 L 738 310 L 868 590"
                stroke-dasharray="60 1000" stroke-dashoffset="1060">
                <animate attributeName="stroke-dashoffset" values="1060;0"
                    dur="7s" repeatCount="indefinite" />
            </path>
            <path d="M 958 310 L 958 590"
                stroke-dasharray="50 550" stroke-dashoffset="600">
                <animate attributeName="stroke-dashoffset" values="600;0"
                    dur="5s" begin="2.5s" repeatCount="indefinite" />
            </path>
        </g>
    </g>

    <!-- ============ 仕上げレイヤー ============ -->
    <rect width="1600" height="900" fill="url(#ai-vignette)" />
    <rect width="1600" height="900" filter="url(#ai-grain)" opacity="0.04" />
</svg>
