<svg viewBox="0 0 1600 900" xmlns="http://www.w3.org/2000/svg" role="img" aria-labelledby="yt-viz-title yt-viz-desc" preserveAspectRatio="xMidYMid slice">
    <title id="yt-viz-title">YouTube運営トータルサポートのイメージ</title>
    <desc id="yt-viz-desc">漆黒のスタジオ空間に赤く発光する動画プレイヤーが浮かぶシネマティックなビジュアル。中央の再生ボタンが静かに脈動し、赤いプログレスバーとシークノブが進行。上部にはチャンネル登録ボタンと登録者カウンタ、右に右肩上がりの再生回数グラフ、下部には編集タイムラインのクリップとカット点が並び、企画・撮影・編集・分析まで担うチャンネル運営を表現している。</desc>
    <style>
        /* 再生ボタンの呼吸と脈動（CSS駆動）。reduced-motion時は停止して中間状態で静止 */
        .yt-breathe { animation: yt-pulse 5.5s ease-in-out infinite; }
        @keyframes yt-pulse { 0%,100% { opacity: .55; } 50% { opacity: .95; } }
        .yt-scale { animation: yt-zoom 5.5s ease-in-out infinite; transform-box: fill-box; transform-origin: center; }
        @keyframes yt-zoom { 0%,100% { transform: scale(1); } 50% { transform: scale(1.05); } }
        /* 進行系（プログレス・シークノブ・再生ヘッド・ベル）はSMIL駆動のため
           reduced-motion時は .yt-motion ごと隠し、.yt-fallback の静止コピーに切り替える */
        .yt-fallback { display: none; }
        @media (prefers-reduced-motion: reduce) {
            .yt-breathe { animation: none !important; opacity: .75 !important; }
            .yt-scale { animation: none !important; }
            .yt-motion { display: none !important; }
            .yt-fallback { display: inline !important; }
        }
    </style>
    <defs>
        <!-- 背景：漆黒のスタジオ。中央がわずかに赤みを帯びる -->
        <radialGradient id="yt-bg" cx="50%" cy="44%" r="82%">
            <stop offset="0%" stop-color="#150d12" />
            <stop offset="55%" stop-color="#0a0a10" />
            <stop offset="100%" stop-color="#040405" />
        </radialGradient>
        <!-- 天井からの赤いスポットライト光条 -->
        <linearGradient id="yt-cone" x1="0%" y1="0%" x2="0%" y2="100%">
            <stop offset="0%" stop-color="#ff0033" stop-opacity="0.16" />
            <stop offset="100%" stop-color="#ff0033" stop-opacity="0" />
        </linearGradient>
        <!-- アンビエントグロー（赤・深紅の二種で奥行き） -->
        <radialGradient id="yt-amb" cx="50%" cy="50%" r="50%">
            <stop offset="0%" stop-color="#ff0033" stop-opacity="0.20" />
            <stop offset="55%" stop-color="#e6243c" stop-opacity="0.07" />
            <stop offset="100%" stop-color="#e6243c" stop-opacity="0" />
        </radialGradient>
        <radialGradient id="yt-amb-deep" cx="50%" cy="50%" r="50%">
            <stop offset="0%" stop-color="#7a1020" stop-opacity="0.32" />
            <stop offset="60%" stop-color="#7a1020" stop-opacity="0.10" />
            <stop offset="100%" stop-color="#7a1020" stop-opacity="0" />
        </radialGradient>
        <!-- プレイヤー直下の床落ち影（フィルタ不使用・グラデで表現） -->
        <radialGradient id="yt-shadow" cx="50%" cy="50%" r="50%">
            <stop offset="0%" stop-color="#000000" stop-opacity="0.6" />
            <stop offset="70%" stop-color="#000000" stop-opacity="0.2" />
            <stop offset="100%" stop-color="#000000" stop-opacity="0" />
        </radialGradient>
        <!-- プレイヤーフレームのガラス面 -->
        <linearGradient id="yt-glass" x1="0%" y1="0%" x2="0%" y2="100%">
            <stop offset="0%" stop-color="#1a1a23" stop-opacity="0.97" />
            <stop offset="100%" stop-color="#0c0c12" stop-opacity="0.97" />
        </linearGradient>
        <!-- スクリーン内部：深い闇の底に赤の残光 -->
        <linearGradient id="yt-screen" x1="0%" y1="0%" x2="0%" y2="100%">
            <stop offset="0%" stop-color="#0d0d14" />
            <stop offset="62%" stop-color="#08080d" />
            <stop offset="100%" stop-color="#170a10" />
        </linearGradient>
        <!-- スクリーン内の上下シェード（UIの可読性） -->
        <linearGradient id="yt-shade-b" x1="0%" y1="0%" x2="0%" y2="100%">
            <stop offset="0%" stop-color="#050508" stop-opacity="0" />
            <stop offset="100%" stop-color="#050508" stop-opacity="0.9" />
        </linearGradient>
        <linearGradient id="yt-shade-t" x1="0%" y1="100%" x2="0%" y2="0%">
            <stop offset="0%" stop-color="#050508" stop-opacity="0" />
            <stop offset="100%" stop-color="#050508" stop-opacity="0.55" />
        </linearGradient>
        <!-- 映像コンテンツの光条（シネマティックなビーム） -->
        <linearGradient id="yt-streak" x1="0%" y1="0%" x2="0%" y2="100%">
            <stop offset="0%" stop-color="#ffffff" stop-opacity="0.07" />
            <stop offset="100%" stop-color="#ffffff" stop-opacity="0" />
        </linearGradient>
        <linearGradient id="yt-streak-r" x1="0%" y1="0%" x2="0%" y2="100%">
            <stop offset="0%" stop-color="#ff4d5e" stop-opacity="0.10" />
            <stop offset="100%" stop-color="#ff4d5e" stop-opacity="0" />
        </linearGradient>
        <!-- スクリーン中央の地平発光 -->
        <radialGradient id="yt-horizon" cx="50%" cy="50%" r="50%">
            <stop offset="0%" stop-color="#ff4d5e" stop-opacity="0.22" />
            <stop offset="60%" stop-color="#e6243c" stop-opacity="0.08" />
            <stop offset="100%" stop-color="#e6243c" stop-opacity="0" />
        </radialGradient>
        <!-- 再生ボタンの発光ハロー -->
        <radialGradient id="yt-play-halo" cx="50%" cy="50%" r="50%">
            <stop offset="0%" stop-color="#ff8a95" stop-opacity="0.50" />
            <stop offset="42%" stop-color="#ff0033" stop-opacity="0.17" />
            <stop offset="100%" stop-color="#ff0033" stop-opacity="0" />
        </radialGradient>
        <!-- 再生ボタン本体（左上に光源） -->
        <radialGradient id="yt-play-btn" cx="38%" cy="30%" r="80%">
            <stop offset="0%" stop-color="#ff6671" />
            <stop offset="55%" stop-color="#e6243c" />
            <stop offset="100%" stop-color="#8e1226" />
        </radialGradient>
        <!-- 再生三角（白磁の質感） -->
        <linearGradient id="yt-tri" x1="0%" y1="0%" x2="0%" y2="100%">
            <stop offset="0%" stop-color="#ffffff" />
            <stop offset="100%" stop-color="#ffdfe3" />
        </linearGradient>
        <!-- プログレスバーの赤 -->
        <linearGradient id="yt-prog" x1="0%" y1="0%" x2="100%" y2="0%">
            <stop offset="0%" stop-color="#b81530" />
            <stop offset="100%" stop-color="#ff0033" />
        </linearGradient>
        <!-- シークノブの発光 -->
        <radialGradient id="yt-knob-halo" cx="50%" cy="50%" r="50%">
            <stop offset="0%" stop-color="#ffffff" stop-opacity="0.85" />
            <stop offset="35%" stop-color="#ff4d5e" stop-opacity="0.38" />
            <stop offset="100%" stop-color="#ff0033" stop-opacity="0" />
        </radialGradient>
        <!-- HUDカード（アナリティクス等）のガラス面 -->
        <linearGradient id="yt-card" x1="0%" y1="0%" x2="0%" y2="100%">
            <stop offset="0%" stop-color="#17171f" stop-opacity="0.96" />
            <stop offset="100%" stop-color="#0d0d13" stop-opacity="0.96" />
        </linearGradient>
        <!-- 右肩上がりグラフの面 -->
        <linearGradient id="yt-graph-area" x1="0%" y1="0%" x2="0%" y2="100%">
            <stop offset="0%" stop-color="#ff0033" stop-opacity="0.30" />
            <stop offset="100%" stop-color="#ff0033" stop-opacity="0" />
        </linearGradient>
        <!-- チャンネル登録ボタン背後のグロー（ぼかしフィルタ不使用・グラデで表現） -->
        <radialGradient id="yt-btn-glow" cx="50%" cy="50%" r="50%">
            <stop offset="0%" stop-color="#ff0033" stop-opacity="0.45" />
            <stop offset="55%" stop-color="#ff0033" stop-opacity="0.16" />
            <stop offset="100%" stop-color="#ff0033" stop-opacity="0" />
        </radialGradient>
        <!-- チャンネル登録ボタンの赤 -->
        <linearGradient id="yt-btn-red" x1="0%" y1="0%" x2="0%" y2="100%">
            <stop offset="0%" stop-color="#ff4d5e" />
            <stop offset="100%" stop-color="#d4172f" />
        </linearGradient>
        <!-- 画面を横切るグリント -->
        <linearGradient id="yt-glint" x1="0%" y1="0%" x2="100%" y2="0%">
            <stop offset="0%" stop-color="#ffffff" stop-opacity="0" />
            <stop offset="50%" stop-color="#ffffff" stop-opacity="0.06" />
            <stop offset="100%" stop-color="#ffffff" stop-opacity="0" />
        </linearGradient>
        <!-- 周辺減光 -->
        <radialGradient id="yt-vignette" cx="50%" cy="46%" r="75%">
            <stop offset="0%" stop-color="#020203" stop-opacity="0" />
            <stop offset="58%" stop-color="#020203" stop-opacity="0" />
            <stop offset="100%" stop-color="#020203" stop-opacity="0.78" />
        </radialGradient>
        <!-- グロー（小領域専用・stdDeviation 4） -->
        <filter id="yt-glow" x="-80%" y="-80%" width="260%" height="260%">
            <feGaussianBlur stdDeviation="4" result="yt-b" />
            <feMerge>
                <feMergeNode in="yt-b" />
                <feMergeNode in="SourceGraphic" />
            </feMerge>
        </filter>
        <!-- フィルムグレイン -->
        <filter id="yt-grain">
            <feTurbulence type="fractalNoise" baseFrequency="0.9" numOctaves="1" stitchTiles="stitch" />
        </filter>
        <!-- スキャンライン（スクリーン内のみ） -->
        <pattern id="yt-scan" width="1" height="5" patternUnits="userSpaceOnUse">
            <rect width="1" height="1" fill="#ff8a95" opacity="0.035" />
        </pattern>
        <!-- 編集タイムラインの目盛り -->
        <pattern id="yt-ticks" width="27" height="10" patternUnits="userSpaceOnUse">
            <path d="M 1 0 V 9" stroke="#4a4a55" stroke-width="1" />
            <path d="M 14.5 4 V 9" stroke="#32323c" stroke-width="1" />
        </pattern>
        <!-- 映像クリップのフレーム区切り -->
        <pattern id="yt-frames" width="22" height="32" patternUnits="userSpaceOnUse">
            <path d="M 0.5 0 V 32" stroke="#06060a" stroke-width="1.5" />
        </pattern>
        <!-- 音声トラックの波形テクスチャ -->
        <pattern id="yt-awave" width="14" height="28" patternUnits="userSpaceOnUse">
            <path d="M 3.5 21 V 7 M 10.5 18 V 10" stroke="#9aa0a6" stroke-width="3" stroke-linecap="round" />
        </pattern>
        <!-- スクリーン内コンテンツのクリップ -->
        <clipPath id="yt-clip-screen">
            <rect x="388" y="166" width="824" height="450" rx="10" />
        </clipPath>
        <!-- 登録ボタンのシャイン用クリップ -->
        <clipPath id="yt-clip-btn">
            <rect x="1006" y="82" width="170" height="44" rx="22" />
        </clipPath>
    </defs>

    <!-- ============ 背景：漆黒のスタジオ空間 ============ -->
    <rect width="1600" height="900" fill="url(#yt-bg)" />

    <!-- 天井からのスポット光条（プレイヤーへ落ちる） -->
    <path d="M 620 0 L 980 0 L 1190 250 L 410 250 Z" fill="url(#yt-cone)" opacity="0.5">
        <animate attributeName="opacity" values="0.38;0.6;0.38" dur="11s" repeatCount="indefinite"
            calcMode="spline" keySplines="0.4 0 0.6 1;0.4 0 0.6 1" />
    </path>

    <!-- 赤のアンビエントグロー（呼吸する深紅・左右で位相をずらす） -->
    <ellipse cx="320" cy="660" rx="560" ry="330" fill="url(#yt-amb-deep)" opacity="0.8">
        <animate attributeName="opacity" values="0.6;0.95;0.6" dur="15s" repeatCount="indefinite"
            calcMode="spline" keySplines="0.4 0 0.6 1;0.4 0 0.6 1" />
    </ellipse>
    <ellipse cx="1340" cy="210" rx="520" ry="300" fill="url(#yt-amb-deep)" opacity="0.7">
        <animate attributeName="opacity" values="0.85;0.55;0.85" dur="18s" repeatCount="indefinite"
            calcMode="spline" keySplines="0.4 0 0.6 1;0.4 0 0.6 1" />
    </ellipse>
    <!-- 床の赤い残光 -->
    <ellipse cx="800" cy="884" rx="640" ry="90" fill="url(#yt-amb)" opacity="0.8" />

    <!-- 巨大な再生三角の透かし（奥の闇に沈む装飾） -->
    <g fill="none" stroke="#ff0033" stroke-linejoin="round">
        <path d="M 1300 250 L 1300 540 L 1532 395 Z" stroke-width="2" opacity="0.07" />
        <path d="M 94 590 L 94 772 L 240 681 Z" stroke-width="2" opacity="0.05" />
    </g>

    <!-- フィルムパーフォレーション（左右端・シネマの記号） -->
    <g fill="#101016" stroke="#26262e" stroke-width="1" opacity="0.8">
        <g>
            <rect x="56" y="96" width="22" height="13" rx="3" /><rect x="56" y="154" width="22" height="13" rx="3" />
            <rect x="56" y="212" width="22" height="13" rx="3" /><rect x="56" y="270" width="22" height="13" rx="3" />
            <rect x="56" y="328" width="22" height="13" rx="3" /><rect x="56" y="386" width="22" height="13" rx="3" />
            <rect x="56" y="444" width="22" height="13" rx="3" /><rect x="56" y="502" width="22" height="13" rx="3" />
            <rect x="56" y="560" width="22" height="13" rx="3" /><rect x="56" y="618" width="22" height="13" rx="3" />
            <rect x="56" y="676" width="22" height="13" rx="3" /><rect x="56" y="734" width="22" height="13" rx="3" />
            <rect x="56" y="792" width="22" height="13" rx="3" />
        </g>
        <g>
            <rect x="1522" y="96" width="22" height="13" rx="3" /><rect x="1522" y="154" width="22" height="13" rx="3" />
            <rect x="1522" y="212" width="22" height="13" rx="3" /><rect x="1522" y="270" width="22" height="13" rx="3" />
            <rect x="1522" y="328" width="22" height="13" rx="3" /><rect x="1522" y="386" width="22" height="13" rx="3" />
            <rect x="1522" y="444" width="22" height="13" rx="3" /><rect x="1522" y="502" width="22" height="13" rx="3" />
            <rect x="1522" y="560" width="22" height="13" rx="3" /><rect x="1522" y="618" width="22" height="13" rx="3" />
            <rect x="1522" y="676" width="22" height="13" rx="3" /><rect x="1522" y="734" width="22" height="13" rx="3" />
            <rect x="1522" y="792" width="22" height="13" rx="3" />
        </g>
    </g>

    <!-- 計器的な十字アクセント（静的） -->
    <g stroke="#5a3038" stroke-width="1" opacity="0.55">
        <path d="M 292 110 H 308 M 300 102 V 118" />
        <path d="M 1342 92 H 1358 M 1350 84 V 100" />
        <path d="M 262 822 H 278 M 270 814 V 830" />
        <path d="M 1336 828 H 1352 M 1344 820 V 836" />
    </g>

    <!-- 暗闇に漂う微光（ダスト・ゆっくり明滅） -->
    <g fill="#d7d9dd">
        <circle cx="190" cy="160" r="1.3" opacity="0.3">
            <animate attributeName="opacity" values="0.12;0.4;0.12" dur="7s" repeatCount="indefinite" />
        </circle>
        <circle cx="1452" cy="640" r="1.4" opacity="0.3">
            <animate attributeName="opacity" values="0.38;0.1;0.38" dur="8.5s" begin="1.4s" repeatCount="indefinite" />
        </circle>
        <circle cx="1130" cy="64" r="1.2" opacity="0.28">
            <animate attributeName="opacity" values="0.1;0.36;0.1" dur="9s" begin="2.2s" repeatCount="indefinite" />
        </circle>
        <circle cx="140" cy="470" r="1.2" fill="#ff8a95" opacity="0.35">
            <animate attributeName="opacity" values="0.4;0.12;0.4" dur="8s" begin="3s" repeatCount="indefinite" />
        </circle>
        <circle cx="620" cy="856" r="1.3" fill="#ff8a95" opacity="0.3">
            <animate attributeName="opacity" values="0.12;0.38;0.12" dur="7.5s" begin="0.8s" repeatCount="indefinite" />
        </circle>
        <circle cx="1496" cy="380" r="1.2" opacity="0.3">
            <animate attributeName="opacity" values="0.34;0.1;0.34" dur="8s" begin="4s" repeatCount="indefinite" />
        </circle>
    </g>

    <!-- ============ 背後に浮遊する暗いサムネイルカード（被写界深度） ============ -->
    <!-- 左上奥 -->
    <g opacity="0.7">
        <animateTransform attributeName="transform" type="translate" values="0 0;0 -9;0 0" dur="9s"
            repeatCount="indefinite" calcMode="spline" keySplines="0.42 0 0.58 1;0.42 0 0.58 1" />
        <g transform="translate(158 212) rotate(-6)">
            <rect width="196" height="118" rx="10" fill="#15151d" stroke="#2a2a33" stroke-width="1.2" />
            <path d="M 88 44 L 116 59 L 88 74 Z" fill="#7a1020" />
            <rect x="10" y="104" width="176" height="3" rx="1.5" fill="#26262e" />
            <rect x="10" y="104" width="64" height="3" rx="1.5" fill="#7a1020" />
        </g>
    </g>
    <!-- 左下奥（LIVE配信中のカード） -->
    <g opacity="0.55">
        <animateTransform attributeName="transform" type="translate" values="0 0;0 7;0 0" dur="10.5s" begin="1.2s"
            repeatCount="indefinite" calcMode="spline" keySplines="0.42 0 0.58 1;0.42 0 0.58 1" />
        <g transform="translate(116 462) rotate(4)">
            <rect width="174" height="106" rx="10" fill="#13131a" stroke="#26262e" stroke-width="1.2" />
            <path d="M 76 38 L 102 52 L 76 66 Z" fill="#561019" />
            <rect x="10" y="10" width="46" height="18" rx="4" fill="#9e1228" />
            <circle cx="20" cy="19" r="3" fill="#ffd9dd" />
            <text x="42" y="24" text-anchor="middle" font-family="'Outfit', 'Noto Sans JP', sans-serif"
                font-size="11" font-weight="700" fill="#ffd9dd">LIVE</text>
        </g>
    </g>
    <!-- 右上奥 -->
    <g opacity="0.5">
        <animateTransform attributeName="transform" type="translate" values="0 0;0 -7;0 0" dur="11s" begin="2s"
            repeatCount="indefinite" calcMode="spline" keySplines="0.42 0 0.58 1;0.42 0 0.58 1" />
        <g transform="translate(1284 108) rotate(-5)">
            <rect width="152" height="94" rx="9" fill="#14141b" stroke="#26262e" stroke-width="1.2" />
            <path d="M 66 33 L 89 47 L 66 61 Z" fill="#6b101e" />
            <rect x="104" y="70" width="40" height="16" rx="3" fill="#06060a" opacity="0.9" />
            <text x="124" y="82" text-anchor="middle" font-family="'Courier New', monospace"
                font-size="11" fill="#c9ccd2">8:24</text>
        </g>
    </g>
    <!-- 右下奥 -->
    <g opacity="0.6">
        <animateTransform attributeName="transform" type="translate" values="0 0;0 8;0 0" dur="9.5s" begin="0.6s"
            repeatCount="indefinite" calcMode="spline" keySplines="0.42 0 0.58 1;0.42 0 0.58 1" />
        <g transform="translate(1286 556) rotate(7)">
            <rect width="180" height="110" rx="10" fill="#15151d" stroke="#2a2a33" stroke-width="1.2" />
            <path d="M 80 40 L 106 55 L 80 70 Z" fill="#7a1020" />
            <rect x="10" y="96" width="160" height="3" rx="1.5" fill="#26262e" />
            <rect x="10" y="96" width="112" height="3" rx="1.5" fill="#8e1226" />
        </g>
    </g>

    <!-- 浮遊する微粒子の上昇（reduced-motionでは非表示） -->
    <g class="yt-motion">
        <circle r="3" fill="#ff4d5e" opacity="0">
            <animateMotion path="M 296 808 Q 314 640 300 466" dur="11s" repeatCount="indefinite" />
            <animate attributeName="opacity" values="0;0.35;0" dur="11s" repeatCount="indefinite" />
        </circle>
        <circle r="2.4" fill="#ff8a95" opacity="0">
            <animateMotion path="M 1318 760 Q 1300 600 1316 430" dur="12s" begin="3s" repeatCount="indefinite" />
            <animate attributeName="opacity" values="0;0.3;0" dur="12s" begin="3s" repeatCount="indefinite" />
        </circle>
        <circle r="2.6" fill="#ff4d5e" opacity="0">
            <animateMotion path="M 210 690 Q 226 540 214 390" dur="10s" begin="6s" repeatCount="indefinite" />
            <animate attributeName="opacity" values="0;0.28;0" dur="10s" begin="6s" repeatCount="indefinite" />
        </circle>
    </g>

    <!-- ============ 主役：シネマティック・プレイヤー ============ -->
    <!-- プレイヤー背後の大きな赤い光だまり（呼吸） -->
    <ellipse cx="800" cy="400" rx="640" ry="370" fill="url(#yt-amb)" opacity="0.85">
        <animate attributeName="opacity" values="0.65;1;0.65" dur="10s" repeatCount="indefinite"
            calcMode="spline" keySplines="0.4 0 0.6 1;0.4 0 0.6 1" />
    </ellipse>
    <!-- フレームの落ち影 -->
    <ellipse cx="800" cy="652" rx="470" ry="34" fill="url(#yt-shadow)" />

    <!-- フレーム本体（ガラス質感・二重ストローク） -->
    <rect x="372" y="150" width="856" height="482" rx="20" fill="url(#yt-glass)" stroke="#2e2e38" stroke-width="1.5" />
    <rect x="372" y="150" width="856" height="482" rx="20" fill="none" stroke="#ff0033" stroke-width="1" opacity="0.35" />
    <rect x="374.5" y="152.5" width="851" height="477" rx="18" fill="none" stroke="#ffffff" stroke-width="0.8" opacity="0.06" />

    <!-- スクリーン（内側） -->
    <rect x="388" y="166" width="824" height="450" rx="10" fill="url(#yt-screen)" />

    <!-- スクリーン内コンテンツ（クリップ内に収める） -->
    <g clip-path="url(#yt-clip-screen)">
        <!-- 抽象映像：シネマティックな光条 -->
        <path d="M 388 166 L 702 166 L 478 616 L 388 616 Z" fill="url(#yt-streak)" />
        <path d="M 1212 166 L 1008 166 L 1146 616 L 1212 616 Z" fill="url(#yt-streak-r)" />
        <!-- 地平の赤い発光 -->
        <ellipse cx="800" cy="402" rx="350" ry="130" fill="url(#yt-horizon)" opacity="0.9">
            <animate attributeName="opacity" values="0.7;1;0.7" dur="9s" repeatCount="indefinite"
                calcMode="spline" keySplines="0.4 0 0.6 1;0.4 0 0.6 1" />
        </ellipse>
        <!-- 画面を静かに横切るグリント -->
        <g class="yt-motion">
            <rect x="200" y="120" width="150" height="560" fill="url(#yt-glint)" transform="rotate(16 800 390)">
                <animate attributeName="x" values="180;1280" dur="9s" repeatCount="indefinite"
                    calcMode="spline" keySplines="0.45 0 0.55 1" />
            </rect>
        </g>

        <!-- 音声波形（中央下・赤の明度差で抑揚） -->
        <g stroke="#ff4d5e" stroke-width="5" stroke-linecap="round" opacity="0.5">
            <line x1="588" y1="534" x2="588" y2="524" opacity="0.4" />
            <line x1="605" y1="534" x2="605" y2="518" opacity="0.45" />
            <line x1="622" y1="534" x2="622" y2="510" opacity="0.5">
                <animate attributeName="y2" values="510;520;510" dur="3.4s" repeatCount="indefinite"
                    calcMode="spline" keySplines="0.42 0 0.58 1;0.42 0 0.58 1" />
            </line>
            <line x1="639" y1="534" x2="639" y2="520" opacity="0.45" />
            <line x1="656" y1="534" x2="656" y2="504" opacity="0.55">
                <animate attributeName="y2" values="504;516;504" dur="2.8s" begin="0.4s" repeatCount="indefinite"
                    calcMode="spline" keySplines="0.42 0 0.58 1;0.42 0 0.58 1" />
            </line>
            <line x1="673" y1="534" x2="673" y2="514" opacity="0.5" />
            <line x1="690" y1="534" x2="690" y2="496" opacity="0.6">
                <animate attributeName="y2" values="496;512;496" dur="3.8s" begin="0.9s" repeatCount="indefinite"
                    calcMode="spline" keySplines="0.42 0 0.58 1;0.42 0 0.58 1" />
            </line>
            <line x1="707" y1="534" x2="707" y2="508" opacity="0.55" />
            <line x1="724" y1="534" x2="724" y2="518" opacity="0.5" />
            <line x1="741" y1="534" x2="741" y2="500" opacity="0.6">
                <animate attributeName="y2" values="500;514;500" dur="3.1s" begin="1.3s" repeatCount="indefinite"
                    calcMode="spline" keySplines="0.42 0 0.58 1;0.42 0 0.58 1" />
            </line>
            <line x1="758" y1="534" x2="758" y2="490" opacity="0.65" />
            <line x1="775" y1="534" x2="775" y2="510" opacity="0.55" />
            <line x1="792" y1="534" x2="792" y2="482" opacity="0.7">
                <animate attributeName="y2" values="482;502;482" dur="4.2s" begin="0.2s" repeatCount="indefinite"
                    calcMode="spline" keySplines="0.42 0 0.58 1;0.42 0 0.58 1" />
            </line>
            <line x1="809" y1="534" x2="809" y2="504" opacity="0.6" />
            <line x1="826" y1="534" x2="826" y2="488" opacity="0.65">
                <animate attributeName="y2" values="488;506;488" dur="3.5s" begin="1.8s" repeatCount="indefinite"
                    calcMode="spline" keySplines="0.42 0 0.58 1;0.42 0 0.58 1" />
            </line>
            <line x1="843" y1="534" x2="843" y2="512" opacity="0.55" />
            <line x1="860" y1="534" x2="860" y2="494" opacity="0.6">
                <animate attributeName="y2" values="494;510;494" dur="2.9s" begin="0.7s" repeatCount="indefinite"
                    calcMode="spline" keySplines="0.42 0 0.58 1;0.42 0 0.58 1" />
            </line>
            <line x1="877" y1="534" x2="877" y2="506" opacity="0.55" />
            <line x1="894" y1="534" x2="894" y2="518" opacity="0.5" />
            <line x1="911" y1="534" x2="911" y2="500" opacity="0.55">
                <animate attributeName="y2" values="500;516;500" dur="3.7s" begin="2.2s" repeatCount="indefinite"
                    calcMode="spline" keySplines="0.42 0 0.58 1;0.42 0 0.58 1" />
            </line>
            <line x1="928" y1="534" x2="928" y2="512" opacity="0.5" />
            <line x1="945" y1="534" x2="945" y2="522" opacity="0.45" />
            <line x1="962" y1="534" x2="962" y2="508" opacity="0.5" />
            <line x1="979" y1="534" x2="979" y2="516" opacity="0.45" />
            <line x1="996" y1="534" x2="996" y2="524" opacity="0.4" />
            <line x1="1013" y1="534" x2="1013" y2="528" opacity="0.35" />
        </g>
        <!-- 波形の基線 -->
        <rect x="582" y="535" width="437" height="1.5" fill="#ff4d5e" opacity="0.18" />

        <!-- 上下シェード（UI可読域） -->
        <rect x="388" y="166" width="824" height="66" fill="url(#yt-shade-t)" />
        <rect x="388" y="484" width="824" height="132" fill="url(#yt-shade-b)" />

        <!-- ============ 中央：発光する再生ボタン ============ -->
        <g transform="translate(800 384)">
            <!-- 発光ハロー（CSSで呼吸・reduced-motionでは静止） -->
            <circle r="126" fill="url(#yt-play-halo)" class="yt-breathe" />
            <!-- 波紋（reduced-motionでは非表示） -->
            <g class="yt-motion" fill="none">
                <circle r="70" stroke="#ff4d5e" stroke-width="1.4" opacity="0">
                    <animate attributeName="r" values="70;158" dur="6s" repeatCount="indefinite"
                        calcMode="spline" keySplines="0.2 0 0.4 1" />
                    <animate attributeName="opacity" values="0.45;0" dur="6s" repeatCount="indefinite"
                        calcMode="spline" keySplines="0.2 0 0.4 1" />
                </circle>
                <circle r="70" stroke="#ff8a95" stroke-width="1.2" opacity="0">
                    <animate attributeName="r" values="70;158" dur="6s" begin="3s" repeatCount="indefinite"
                        calcMode="spline" keySplines="0.2 0 0.4 1" />
                    <animate attributeName="opacity" values="0.38;0" dur="6s" begin="3s" repeatCount="indefinite"
                        calcMode="spline" keySplines="0.2 0 0.4 1" />
                </circle>
            </g>
            <!-- 外周リング（明度差の二重線） -->
            <circle r="82" fill="none" stroke="#ff0033" stroke-width="5" opacity="0.1" />
            <circle r="82" fill="none" stroke="#ff4d5e" stroke-width="1.2" opacity="0.35" />
            <!-- 本体（ゆっくり脈動・CSS駆動なのでreduced-motionで完全静止） -->
            <g class="yt-scale">
                <circle r="62" fill="url(#yt-play-btn)" stroke="#ff8a95" stroke-width="1.6" />
                <path d="M -16 -30 L 36 0 L -16 30 Z" fill="url(#yt-tri)" stroke="url(#yt-tri)"
                    stroke-width="10" stroke-linejoin="round" />
            </g>
        </g>

        <!-- スキャンライン（ホログラム的な画面の質感） -->
        <rect x="388" y="166" width="824" height="450" fill="url(#yt-scan)" />
    </g>

    <!-- スクリーン上部の小UI：エピソードラベルと縦三点メニュー -->
    <circle cx="414" cy="193" r="4" fill="#ff0033">
        <animate attributeName="opacity" values="0.9;0.5;0.9" dur="4s" repeatCount="indefinite" />
    </circle>
    <text x="426" y="198" font-family="'Noto Sans JP', sans-serif" font-size="14" fill="#c9ccd2"
        opacity="0.85" letter-spacing="1">ブランドストーリー #12</text>
    <g fill="#9aa0a6" opacity="0.7">
        <circle cx="1190" cy="187" r="2.2" /><circle cx="1190" cy="195" r="2.2" /><circle cx="1190" cy="203" r="2.2" />
    </g>

    <!-- ============ コントロールバー（プレイヤー下端） ============ -->
    <!-- プログレスバー：トラック／バッファ／再生済み（ゆっくり進行） -->
    <rect x="412" y="575" width="776" height="6" rx="3" fill="#2e2e36" opacity="0.9" />
    <rect x="412" y="575" width="590" height="6" rx="3" fill="#4a4a55" opacity="0.5">
        <animate attributeName="width" values="590;648;590" dur="12s" repeatCount="indefinite"
            calcMode="spline" keySplines="0.4 0 0.6 1;0.4 0 0.6 1" />
    </rect>
    <!-- 再生済みバー。巻き戻りは周期途中のフェード窓（0.84-0.91）内で隠して「次の動画へ切替」風に。
         t=0 は opacity 1 ＋中間幅なので、SMILが止まった静止フレームでも構図が成立する -->
    <g class="yt-motion">
        <animate attributeName="opacity" values="1;1;0;0;1" keyTimes="0;0.84;0.87;0.91;1" dur="12s" repeatCount="indefinite" />
        <rect x="412" y="575" width="240" height="6" rx="3" fill="url(#yt-prog)">
            <animate attributeName="width" values="240;470;470;190;240" keyTimes="0;0.6;0.88;0.9;1" dur="12s" repeatCount="indefinite"
                calcMode="spline" keySplines="0.4 0 0.6 1;0 0 1 1;0 0 1 1;0.4 0 0.6 1" />
        </rect>
    </g>
    <!-- チャプターマーカー -->
    <g fill="#0d0d12">
        <rect x="600" y="575" width="4" height="6" /><rect x="762" y="575" width="4" height="6" />
        <rect x="940" y="575" width="4" height="6" /><rect x="1092" y="575" width="4" height="6" />
    </g>
    <!-- シークノブ（発光・プログレスと同期。基準cxを持たせSMIL非動作環境でも正位置） -->
    <g class="yt-motion">
        <animate attributeName="opacity" values="1;1;0;0;1" keyTimes="0;0.84;0.87;0.91;1" dur="12s" repeatCount="indefinite" />
        <circle cx="652" cy="578" r="14" fill="url(#yt-knob-halo)">
            <animate attributeName="cx" values="652;882;882;602;652" keyTimes="0;0.6;0.88;0.9;1" dur="12s" repeatCount="indefinite"
                calcMode="spline" keySplines="0.4 0 0.6 1;0 0 1 1;0 0 1 1;0.4 0 0.6 1" />
        </circle>
        <circle cx="652" cy="578" r="6.5" fill="#ff0033" stroke="#ffd9dd" stroke-width="1.4">
            <animate attributeName="cx" values="652;882;882;602;652" keyTimes="0;0.6;0.88;0.9;1" dur="12s" repeatCount="indefinite"
                calcMode="spline" keySplines="0.4 0 0.6 1;0 0 1 1;0 0 1 1;0.4 0 0.6 1" />
        </circle>
    </g>
    <!-- 静止フォールバック（reduced-motion時のみ表示） -->
    <g class="yt-fallback">
        <rect x="412" y="575" width="366" height="6" rx="3" fill="url(#yt-prog)" />
        <circle cx="778" cy="578" r="14" fill="url(#yt-knob-halo)" />
        <circle cx="778" cy="578" r="6.5" fill="#ff0033" stroke="#ffd9dd" stroke-width="1.4" />
    </g>

    <!-- 左側コントロール：一時停止・次へ・音量・タイム -->
    <g fill="#e8e8ee">
        <rect x="418" y="590" width="4.5" height="16" rx="1.5" />
        <rect x="427" y="590" width="4.5" height="16" rx="1.5" />
        <path d="M 450 590 L 450 606 L 462 598 Z" />
        <rect x="464" y="590" width="3.5" height="16" rx="1.5" />
    </g>
    <g transform="translate(492 598)">
        <path d="M 0 -4 L 5 -4 L 11 -9 L 11 9 L 5 4 L 0 4 Z" fill="#d7d9dd" />
        <path d="M 15 -5 A 7 7 0 0 1 15 5" fill="none" stroke="#d7d9dd" stroke-width="2" stroke-linecap="round" />
        <path d="M 18 -8 A 11 11 0 0 1 18 8" fill="none" stroke="#9aa0a6" stroke-width="2" stroke-linecap="round" opacity="0.7" />
    </g>
    <text x="540" y="604" font-family="'Courier New', monospace" font-size="15" fill="#c9ccd2">12:34 / 28:05</text>

    <!-- 右側コントロール：CC・4K・フルスクリーン -->
    <g font-family="'Outfit', 'Noto Sans JP', sans-serif" font-weight="700" text-anchor="middle">
        <rect x="1022" y="587" width="34" height="22" rx="4" fill="none" stroke="#9aa0a6" stroke-width="1.4" opacity="0.8" />
        <text x="1039" y="603" font-size="13" fill="#c9ccd2">CC</text>
        <rect x="1066" y="587" width="34" height="22" rx="4" fill="none" stroke="#ff4d5e" stroke-width="1.4" opacity="0.9" />
        <text x="1083" y="603" font-size="13" fill="#ff8a95">4K</text>
    </g>
    <g fill="none" stroke="#d7d9dd" stroke-width="2.4" stroke-linecap="round">
        <path d="M 1156 589 h -8 v 8 M 1180 589 h 8 v 8 M 1156 607 h -8 v -8 M 1180 607 h 8 v -8" />
    </g>

    <!-- ============ 上部：チャンネルヘッダー（運営のUI） ============ -->
    <!-- アバター（赤リング＋再生グリフ） -->
    <g transform="translate(404 104)">
        <circle r="27" fill="none" stroke="url(#yt-prog)" stroke-width="2.4" opacity="0.9" />
        <circle r="22" fill="#16161e" stroke="#2e2e38" stroke-width="1" />
        <path d="M -6 -9 L 10 0 L -6 9 Z" fill="#ff4d5e" opacity="0.95" />
    </g>
    <!-- チャンネル名のプレースホルダーバー（フォント非依存） -->
    <rect x="446" y="88" width="168" height="14" rx="7" fill="#34343e" />
    <rect x="446" y="110" width="104" height="9" rx="4.5" fill="#232329" />
    <!-- 認証チェック -->
    <circle cx="634" cy="95" r="8" fill="#2a2a33" />
    <path d="M 630 95 l 3 3 l 6 -6" fill="none" stroke="#c9ccd2" stroke-width="1.8" stroke-linecap="round" stroke-linejoin="round" />

    <!-- 登録者カウンタ（右肩上がりの暗喩） -->
    <path d="M 850 116 L 857 104 L 864 116 Z" fill="#ff4d5e">
        <animate attributeName="opacity" values="0.6;1;0.6" dur="4.5s" repeatCount="indefinite" />
    </path>
    <text x="982" y="92" text-anchor="end" font-family="'Noto Sans JP', sans-serif" font-size="12"
        fill="#8a8f98" letter-spacing="1">チャンネル登録者</text>
    <text x="982" y="117" text-anchor="end" font-family="'Outfit', 'Noto Sans JP', sans-serif"
        font-size="21" font-weight="800" fill="#f2f3f5">128,400</text>

    <!-- チャンネル登録ボタン（赤・グロー・シャイン） -->
    <ellipse cx="1091" cy="106" rx="118" ry="42" fill="url(#yt-btn-glow)" opacity="0.75">
        <animate attributeName="opacity" values="0.5;0.95;0.5" dur="6s" repeatCount="indefinite"
            calcMode="spline" keySplines="0.4 0 0.6 1;0.4 0 0.6 1" />
    </ellipse>
    <rect x="1006" y="82" width="170" height="44" rx="22" fill="url(#yt-btn-red)" stroke="#ff8a95" stroke-width="1" />
    <text x="1091" y="110" text-anchor="middle" font-family="'Noto Sans JP', sans-serif" font-size="17"
        font-weight="700" fill="#ffffff">チャンネル登録</text>
    <g class="yt-motion" clip-path="url(#yt-clip-btn)">
        <rect x="960" y="78" width="44" height="52" fill="#ffffff" opacity="0.14" transform="skewX(-18)">
            <animate attributeName="x" values="980;1280;1280" keyTimes="0;0.3;1" dur="7s" repeatCount="indefinite"
                calcMode="spline" keySplines="0.4 0 0.6 1;0 0 1 1" />
        </rect>
    </g>
    <!-- 通知ベル（ときどき小さく揺れる・reduced-motionでは静止コピーへ） -->
    <g transform="translate(1212 104)" opacity="0.85">
        <g class="yt-motion">
            <animateTransform attributeName="transform" type="rotate"
                values="0 0 -14;0 0 -14;-12 0 -14;9 0 -14;-6 0 -14;4 0 -14;0 0 -14;0 0 -14"
                keyTimes="0;0.55;0.62;0.7;0.78;0.86;0.94;1" dur="8s" repeatCount="indefinite" />
            <circle cy="-17" r="2.2" fill="#c9ccd2" />
            <path d="M 0 -16 C 7 -16 10 -10 10 -3 L 11.5 4 L -11.5 4 L -10 -3 C -10 -10 -7 -16 0 -16 Z" fill="#c9ccd2" />
            <circle cy="8.5" r="3" fill="#c9ccd2" />
        </g>
        <g class="yt-fallback">
            <circle cy="-17" r="2.2" fill="#c9ccd2" />
            <path d="M 0 -16 C 7 -16 10 -10 10 -3 L 11.5 4 L -11.5 4 L -10 -3 C -10 -10 -7 -16 0 -16 Z" fill="#c9ccd2" />
            <circle cy="8.5" r="3" fill="#c9ccd2" />
        </g>
    </g>

    <!-- ============ 右：アナリティクスHUD（右肩上がりのグラフ） ============ -->
    <g transform="translate(1132 218)">
        <rect width="196" height="132" rx="14" fill="url(#yt-card)" stroke="#2a2a33" stroke-width="1.5" />
        <rect width="196" height="132" rx="14" fill="none" stroke="#ff4d5e" stroke-width="1" opacity="0.35" />
        <text x="16" y="28" font-family="'Noto Sans JP', sans-serif" font-size="13" fill="#9aa0a6"
            letter-spacing="1">再生回数</text>
        <!-- 急上昇バッジ -->
        <rect x="118" y="12" width="64" height="22" rx="11" fill="#2a0810" stroke="#ff4d5e" stroke-width="0.9" />
        <text x="150" y="27" text-anchor="middle" font-family="'Noto Sans JP', sans-serif" font-size="11"
            font-weight="700" fill="#ff8a95">急上昇</text>
        <text x="16" y="54" font-family="'Outfit', 'Noto Sans JP', sans-serif" font-size="20" font-weight="800"
            fill="#ff4d5e">+248%</text>
        <!-- 面＋折れ線（静的に常時表示） -->
        <path d="M 16 108 L 44 98 L 72 102 L 100 84 L 128 72 L 156 56 L 180 40 L 180 116 L 16 116 Z"
            fill="url(#yt-graph-area)" />
        <path d="M 16 108 L 44 98 L 72 102 L 100 84 L 128 72 L 156 56 L 180 40" fill="none"
            stroke="#ff4d5e" stroke-width="2.5" stroke-linecap="round" stroke-linejoin="round" />
        <!-- 線上を走る白いグリント -->
        <path class="yt-motion" d="M 16 108 L 44 98 L 72 102 L 100 84 L 128 72 L 156 56 L 180 40" fill="none"
            stroke="#ffffff" stroke-width="2.5" stroke-linecap="round" stroke-linejoin="round"
            stroke-dasharray="34 360" stroke-dashoffset="394" opacity="0.8">
            <animate attributeName="stroke-dashoffset" values="394;0" dur="7s" repeatCount="indefinite" />
        </path>
        <!-- 先端の発光ドット -->
        <circle cx="180" cy="40" r="9" fill="url(#yt-knob-halo)" opacity="0.8" />
        <circle cx="180" cy="40" r="3.6" fill="#ff8a95">
            <animate attributeName="r" values="3.2;4.6;3.2" dur="3.6s" repeatCount="indefinite"
                calcMode="spline" keySplines="0.42 0 0.58 1;0.42 0 0.58 1" />
        </circle>
    </g>

    <!-- ============ 左：高評価率バッジ（小さく浮遊） ============ -->
    <g>
        <animateTransform attributeName="transform" type="translate" values="0 0;0 -7;0 0" dur="8s" begin="1.5s"
            repeatCount="indefinite" calcMode="spline" keySplines="0.42 0 0.58 1;0.42 0 0.58 1" />
        <g transform="translate(324 338)">
            <rect x="-66" y="-22" width="132" height="44" rx="22" fill="url(#yt-card)" stroke="#2a2a33" stroke-width="1.4" />
            <rect x="-66" y="-22" width="132" height="44" rx="22" fill="none" stroke="#ff4d5e" stroke-width="0.9" opacity="0.3" />
            <!-- サムズアップ（汎用アイコン） -->
            <g transform="translate(-38 0)" fill="#ff4d5e">
                <rect x="-9" y="-2" width="5" height="11" rx="1.5" />
                <path d="M -3 9 L -3 -1 L 2 -8.5 Q 3.2 -10.5 5 -9.4 Q 6.8 -8.3 5.8 -5.6 L 4.4 -2 L 10.5 -2 Q 12.8 -2 12.2 0.4 L 10 7 Q 9.4 9 7.2 9 Z" />
            </g>
            <text x="-16" y="6" font-family="'Outfit', 'Noto Sans JP', sans-serif" font-size="17"
                font-weight="800" fill="#f2f3f5">高評価 98%</text>
        </g>
    </g>

    <!-- ============ 下部：編集タイムライン（編集まで担う暗喩） ============ -->
    <g>
        <!-- パネル本体 -->
        <rect x="372" y="672" width="856" height="132" rx="14" fill="url(#yt-card)" stroke="#2a2a33" stroke-width="1.5" />
        <rect x="372" y="672" width="856" height="132" rx="14" fill="none" stroke="#ff0033" stroke-width="0.9" opacity="0.25" />
        <!-- ヘッダー -->
        <text x="396" y="694" font-family="'Noto Sans JP', sans-serif" font-size="13" fill="#9aa0a6"
            letter-spacing="2">編集タイムライン</text>
        <circle cx="1026" cy="689" r="4" fill="#ff0033">
            <animate attributeName="opacity" values="1;0.4;1" dur="3s" repeatCount="indefinite" />
        </circle>
        <text x="1036" y="694" font-family="'Noto Sans JP', sans-serif" font-size="12" fill="#ff8a95">編集中</text>
        <text x="1204" y="694" text-anchor="end" font-family="'Courier New', monospace" font-size="13"
            fill="#c9ccd2">TC 00:12:08:24</text>
        <!-- タイムルーラー -->
        <rect x="396" y="700" width="808" height="10" fill="url(#yt-ticks)" opacity="0.85" />
        <!-- 映像トラック（クリップ片：赤の明度違いで素材を区別） -->
        <rect x="396" y="720" width="808" height="32" rx="4" fill="#14141b" />
        <g>
            <rect x="396" y="720" width="150" height="32" rx="3" fill="#4a0d18" />
            <rect x="552" y="720" width="208" height="32" rx="3" fill="#6b101e" />
            <rect x="766" y="720" width="118" height="32" rx="3" fill="#36090f" />
            <rect x="890" y="720" width="172" height="32" rx="3" fill="#591020" />
            <rect x="1068" y="720" width="136" height="32" rx="3" fill="#46101a" />
        </g>
        <g fill="#ff4d5e">
            <rect x="396" y="720" width="150" height="2.5" opacity="0.55" />
            <rect x="552" y="720" width="208" height="2.5" opacity="0.75" />
            <rect x="766" y="720" width="118" height="2.5" opacity="0.4" />
            <rect x="890" y="720" width="172" height="2.5" opacity="0.65" />
            <rect x="1068" y="720" width="136" height="2.5" opacity="0.5" />
        </g>
        <!-- フレーム区切りテクスチャ -->
        <rect x="396" y="720" width="808" height="32" fill="url(#yt-frames)" opacity="0.5" />
        <!-- 音声トラック＋波形テクスチャ -->
        <rect x="396" y="758" width="808" height="28" rx="4" fill="#101016" />
        <rect x="396" y="758" width="808" height="28" fill="url(#yt-awave)" opacity="0.3" />
        <!-- カット点（クリップ境界の白いマーカー） -->
        <g>
            <rect x="543" y="716" width="6" height="74" fill="#0b0b12" />
            <rect x="757" y="716" width="6" height="74" fill="#0b0b12" />
            <rect x="881" y="716" width="6" height="74" fill="#0b0b12" />
            <rect x="1059" y="716" width="6" height="74" fill="#0b0b12" />
        </g>
        <g stroke="#e8e8ee" stroke-width="1.5" opacity="0.5">
            <line x1="546" y1="722" x2="546" y2="738" />
            <line x1="760" y1="722" x2="760" y2="738" />
            <line x1="884" y1="722" x2="884" y2="738" />
            <line x1="1062" y1="722" x2="1062" y2="738" />
        </g>
        <!-- 再生ヘッド（ゆっくりスクラブ・reduced-motionでは静止コピーへ） -->
        <g class="yt-motion" transform="translate(700 0)">
            <animateTransform attributeName="transform" type="translate" values="436 0;1164 0;436 0" dur="12s"
                repeatCount="indefinite" calcMode="spline" keySplines="0.45 0 0.55 1;0.45 0 0.55 1" />
            <line x1="0" y1="702" x2="0" y2="792" stroke="#ff0033" stroke-width="1.8" />
            <path d="M -7 698 H 7 V 706 L 0 713 L -7 706 Z" fill="#ff0033" filter="url(#yt-glow)" />
        </g>
        <g class="yt-fallback" transform="translate(700 0)">
            <line x1="0" y1="702" x2="0" y2="792" stroke="#ff0033" stroke-width="1.8" />
            <path d="M -7 698 H 7 V 706 L 0 713 L -7 706 Z" fill="#ff0033" filter="url(#yt-glow)" />
        </g>
    </g>

    <!-- コーナーHUDラベル（姉妹作とのシリーズ一貫性） -->
    <text x="100" y="856" font-family="'Courier New', monospace" font-size="13" letter-spacing="2"
        fill="#ff8a95" opacity="0.3">FunEx &#183; YouTube運営</text>
    <text x="1500" y="856" text-anchor="end" font-family="'Courier New', monospace" font-size="13"
        letter-spacing="2" fill="#ff8a95" opacity="0.26">企画 / 撮影 / 編集 / 分析改善</text>

    <!-- ============ 仕上げ：周辺減光とフィルムグレイン ============ -->
    <rect width="1600" height="900" fill="url(#yt-vignette)" />
    <rect width="1600" height="900" filter="url(#yt-grain)" opacity="0.04" />
</svg>
